<?xml version="1.0" encoding="utf-8"?>
<!-- Generator: Adobe Illustrator 16.0.0, SVG Export Plug-In . SVG Version: 6.00 Build 0)  -->
<!DOCTYPE svg PUBLIC "-//W3C//DTD SVG 1.1//EN" "http://www.w3.org/Graphics/SVG/1.1/DTD/svg11.dtd">
<svg version="1.1" id="Calque_1" xmlns="http://www.w3.org/2000/svg" xmlns:xlink="http://www.w3.org/1999/xlink" x="0px" y="0px"
	 width="343.938px" height="119.87px" viewBox="0 0 343.938 119.87" enable-background="new 0 0 343.938 119.87"
	 xml:space="preserve">
<path fill="#3660F5" d="M48.101,30.013c-0.841-1.579-1.87-3.1-3.101-4.56c-1.99-2.381-4.42-4.25-7.14-5.62
	c-3.71-1.88-7.94-2.82-12.271-2.82c-7.399,0-14.719,2.91-19.399,8.44C2.16,30.333,0,36.614,0,43.733c0,6.94,1.871,13.03,6.19,18.28
	c3.13,3.699,7.41,6.23,12.14,7.49c0.771,0.209,1.561,0.389,2.36,0.52c1.601,0.289,3.24,0.43,4.899,0.43
	c3.381,0,6.65-0.549,9.65-1.67c1.95-0.721,3.79-1.67,5.471-2.869c1.569-1.09,3.01-2.4,4.289-3.9c4.311-5.34,6.28-11.061,6.28-18.28
	C51.28,38.763,50.34,34.184,48.101,30.013z M16.311,54.232c-2.15-2.809-2.811-6.648-2.811-10.499c0-3.84,0.66-7.779,2.811-10.59
	c2.061-2.81,5.529-4.22,9.279-4.22c0.92,0,1.811,0.08,2.67,0.25c2.691,0.521,5.051,1.84,6.611,3.97
	c1.569,2.041,2.389,4.68,2.729,7.44v0.01c0.12,1.04,0.18,2.09,0.18,3.14c0,3.851-0.75,7.69-2.909,10.499
	c-0.531,0.73-1.16,1.371-1.861,1.91c-2.01,1.58-4.639,2.4-7.42,2.4c-2.489,0-4.85-0.66-6.76-1.92
	C17.86,55.982,17,55.183,16.311,54.232z"/>
<path fill="#3660F5" d="M142.191,0.141v11.25h-12.75V0.141H142.191z M142.191,18.422v50.624h-12.75V18.422H142.191z"/>
<path fill="#3660F5" d="M181.135,34.829c-0.563-1.781-2.25-3.656-3.938-4.5c-1.5-0.844-3.375-1.313-5.438-1.313
	c-2.25,0-4.219,0.375-5.531,1.125c-1.406,0.938-1.688,1.781-1.688,2.344c0,0.469,0.188,0.844,0.281,1.125
	c0.75,0.938,2.813,1.781,5.344,2.531s5.438,1.5,7.969,2.156c4.219,1.313,6.656,1.875,9.938,4.594
	c4.125,3.187,6.281,7.499,5.906,12.655c-0.375,4.781-3,8.906-7.219,11.625c-4.031,2.531-8.906,3.281-14.063,3.281
	c-6.938,0-12.844-1.781-17.531-6.75c-2.344-2.625-5.156-8.25-5.344-10.875l12.094-3c0,1.5,0.938,4.313,2.344,5.719
	c2.25,2.438,5.344,2.906,8.438,2.906c2.344,0,5.625-0.469,7.125-1.688c0.938-0.844,1.125-1.406,1.313-2.344
	c0-0.938-0.188-1.594-0.844-2.25c-1.219-1.219-3.563-1.969-5.25-2.438c-2.719-0.75-5.344-1.406-8.156-2.156
	c-4.594-1.219-7.406-2.438-10.031-4.499c-3.469-2.625-5.25-6.75-5.25-10.313c0-6.375,3.938-11.438,9.281-13.781
	c3.938-1.688,7.594-2.063,11.063-1.969c3.469,0,7.313,0.75,10.781,2.531c4.969,2.531,8.813,6.938,10.781,12.281L181.135,34.829z"/>
<path fill="#3660F5" d="M248.109,43.735v25.312h-12.938V43.735c0-4.594-0.75-8.906-3.375-11.531c-1.781-1.875-4.5-2.813-7.969-2.813
	c-2.344,0.094-4.313,0.75-6,1.969c-1.875,1.406-3.188,3.656-3.75,6.469c-0.469,2.25-0.563,5.719-0.563,9.187v22.031h-12.844V1.547
	h11.25v20.344c4.031-3.188,9.094-4.688,13.688-4.875c5.625-0.188,11.625,1.969,15.656,5.625
	C247.266,28.172,248.109,34.922,248.109,43.735z"/>
<path fill="#3660F5" d="M254.898,27.797c0.281-0.375,0.656-1.031,1.031-1.5c4.594-6.469,11.531-9.188,19.875-9.188
	c9.281,0,16.781,3.094,20.906,10.031c1.969,3.281,2.719,7.031,2.719,10.125v31.78h-11.156v-8.625
	c-0.938,2.719-4.031,5.531-6.281,6.844c-3.563,2.156-7.969,3.094-11.813,3.094c-4.969,0-10.125-2.438-12.844-5.625
	c-2.625-3.656-3.938-6.188-3.938-10.594c0-5.438,3.375-10.78,8.156-13.593c5.625-3,9.563-3.094,16.781-4.219l8.156-1.125
	c-0.469-1.969-1.875-3.656-3.75-4.688c-2.063-1.219-4.594-1.688-7.219-1.594c-3.281,0-6,0.75-7.969,3.094
	c-0.375,0.375-0.75,0.844-1.031,1.313L254.898,27.797z M277.398,47.203c-5.438,1.031-11.156,2.063-11.344,6.094
	c-0.188,3,2.531,5.625,6.656,5.438c5.344-0.188,11.813-2.813,13.406-8.906c0.563-2.063,0.656-3.938,0.656-4.406L277.398,47.203z"/>
<path fill="#3660F5" d="M308.465,69.046V0.141h12.75v68.905H308.465z"/>
<path fill="#3660F5" d="M331.189,69.046V0.141h12.75v68.905H331.189z"/>
<path fill="#3660F5" d="M115.387,11.204c2.25-0.37,5.061-0.28,7.41,0.09V0.333c-8.25-0.851-16.22-0.38-21.56,5.06
	c-1.61,1.74-2.681,3.73-3.39,5.74c-0.881,2.561-1.19,5.141-1.301,7.29H96.5H86.047H76.25c0-2.21,0.36-4.06,1.69-5.37
	c0.931-0.9,2.319-1.54,4.399-1.85c2.25-0.37,5.061-0.28,7.41,0.09V0.333c-8.25-0.851-16.22-0.38-21.56,5.06
	c-1.61,1.74-2.681,3.73-3.39,5.74c-0.881,2.561-1.19,5.141-1.301,7.29H53v9.84h10.5v40.779h12.75V28.263h9.797h10.28h0.22V73.75
	c0,19.984-10.971,34.227-32.344,34.227c-17.705,0-32.109-15.51-32.109-33.215h-13c0,24.873,20.236,45.107,45.109,45.107
	c27.508,0,45.094-17.426,45.094-46.119V28.263h13.244v-9.84h-13.244c0-2.21,0.36-4.06,1.69-5.37
	C111.918,12.153,113.307,11.513,115.387,11.204z"/>
</svg>
