<svg width="336" height="118" viewBox="0 0 336 118" fill="none" xmlns="http://www.w3.org/2000/svg">
    <path d="M25.2872 69.4294C30.2891 69.4294 34.6889 68.3185 38.4866 66.0967C42.3152 63.8441 45.2947 60.743 47.4251 56.7932C49.5864 52.8126 50.6671 48.2303 50.6671 43.0462C50.6671 37.893 49.6019 33.3415 47.4714 29.3918C45.341 25.4111 42.3615 22.2945 38.5329 20.0419C34.7352 17.7893 30.32 16.663 25.2872 16.663C20.3471 16.663 15.9782 17.7739 12.1805 19.9956C8.38276 22.2174 5.40325 25.3186 3.24195 29.2992C1.08065 33.2489 0 37.8313 0 43.0462C0 48.1994 1.04977 52.7663 3.14932 56.7469C5.27975 60.6967 8.24382 63.7979 12.0415 66.0505C15.8392 68.3031 20.2545 69.4294 25.2872 69.4294ZM25.2872 57.6726C21.366 57.6726 18.3865 56.3612 16.3487 53.7383C14.3418 51.0846 13.3383 47.5205 13.3383 43.0462C13.3383 38.6953 14.2955 35.1775 16.2098 32.4929C18.1549 29.7775 21.1807 28.4197 25.2872 28.4197C29.2702 28.4197 32.2651 29.7466 34.2721 32.4004C36.3099 35.0541 37.3288 38.6027 37.3288 43.0462C37.3288 47.3354 36.3253 50.8531 34.3184 53.5995C32.3423 56.3149 29.3319 57.6726 25.2872 57.6726Z" fill="#3660F5"/>
    <path d="M61.4499 68.0408H74.0472V27.7717H85.6256V18.0516H74.0472V15.2745C74.0472 13.8859 74.5258 12.6979 75.4829 11.7104C76.4401 10.6921 77.9067 10.183 79.8827 10.183H85.6256V0H79.4196C78.2154 0 76.7643 0.0308571 75.0661 0.0925713C73.368 0.123427 71.608 0.462858 69.7864 1.11087C67.9956 1.72802 66.3283 2.9006 64.7845 4.62862C63.6112 5.92463 62.793 7.37494 62.3299 8.97953C61.8667 10.5841 61.6043 12.1887 61.5425 13.7933C61.4808 15.367 61.4499 16.7865 61.4499 18.0516H53.5766V27.7717H61.4499V68.0408ZM93.4989 73H106.096V27.7717H117.675V18.0516H106.096V15.2745C106.096 13.8859 106.575 12.6979 107.532 11.7104C108.489 10.6921 109.956 10.183 111.932 10.183H117.675V0H111.469C110.264 0 108.813 0.0308571 107.115 0.0925713C105.417 0.123427 103.657 0.462858 101.835 1.11087C100.045 1.72802 98.3773 2.9006 96.8335 4.62862C95.6602 5.92463 94.842 7.37494 94.3789 8.97953C93.9157 10.5841 93.6533 12.1887 93.5916 13.7933C93.5298 15.367 93.4989 16.7865 93.4989 18.0516H85.6256V27.7717H93.4989V73Z" fill="#3660F5"/>
    <path d="M123.567 10.183H136.164V0H123.567V10.183ZM123.567 68.0408H136.164V18.0516H123.567V68.0408Z" fill="#3660F5"/>
    <path d="M165.888 69.4294C172.434 69.4294 177.559 67.9636 181.264 65.0322C184.969 62.1007 186.822 58.0738 186.822 52.9515C186.822 49.0634 185.618 45.9931 183.209 43.7405C180.832 41.4879 176.787 39.621 171.075 38.1399C167.185 37.1524 164.282 36.3501 162.368 35.733C160.485 35.1158 159.234 34.5141 158.617 33.9278C158.03 33.3415 157.737 32.6164 157.737 31.7524C157.737 30.3021 158.432 29.1912 159.821 28.4197C161.241 27.6483 163.109 27.3397 165.425 27.494C170.334 27.8643 173.02 29.9626 173.483 33.789L186.359 31.4746C185.71 26.9386 183.487 23.3437 179.689 20.6899C175.892 18.0053 171.044 16.663 165.147 16.663C159.095 16.663 154.263 18.0825 150.651 20.9214C147.038 23.7603 145.232 27.5866 145.232 32.4004C145.232 36.2267 146.483 39.2507 148.984 41.4725C151.484 43.6633 155.792 45.5457 161.905 47.1194C165.518 48.076 168.173 48.8474 169.871 49.4337C171.6 50.02 172.712 50.6217 173.206 51.2389C173.7 51.8252 173.947 52.612 173.947 53.5995C173.947 55.1732 173.329 56.4075 172.094 57.3024C170.859 58.1664 169.099 58.5984 166.814 58.5984C164.035 58.5984 161.735 57.9349 159.914 56.6081C158.123 55.2812 156.965 53.4452 156.44 51.1L143.565 53.044C144.399 58.2589 146.745 62.3013 150.605 65.171C154.495 68.0099 159.589 69.4294 165.888 69.4294Z" fill="#3660F5"/>
    <path d="M193.201 68.0408H205.984V42.6759C205.984 39.5593 206.324 37.0598 207.003 35.1775C207.713 33.2952 208.608 31.8758 209.689 30.9192C210.77 29.9318 211.928 29.2683 213.163 28.9289C214.398 28.5895 215.555 28.4197 216.636 28.4197C219.322 28.4197 221.391 29.0215 222.842 30.2249C224.324 31.4284 225.389 32.9249 226.038 34.7147C226.686 36.5044 227.072 38.2941 227.196 40.0839C227.319 41.8428 227.381 43.2931 227.381 44.4348V68.0408H240.163V39.9913C240.163 39.1582 240.102 37.8313 239.978 36.0107C239.855 34.1901 239.5 32.1844 238.913 29.9935C238.326 27.7717 237.338 25.6426 235.949 23.606C234.59 21.5694 232.676 19.8877 230.206 18.5608C227.736 17.2339 224.54 16.5705 220.619 16.5705C217.007 16.5705 213.857 17.1722 211.171 18.3756C208.485 19.5791 206.231 21.1837 204.409 23.1894V1.38859H193.201V68.0408Z" fill="#3660F5"/>
    <path d="M262.37 69.4294C266.23 69.4294 269.472 68.8431 272.096 67.6705C274.751 66.467 277.19 64.5539 279.413 61.931V68.0408H290.436V37.4918C290.436 35.2084 290.344 33.1409 290.158 31.2895C289.973 29.438 289.386 27.5866 288.398 25.7351C286.638 22.4025 284.045 20.0574 280.618 18.6996C277.19 17.3419 273.269 16.663 268.854 16.663C262.833 16.663 258.078 17.9591 254.589 20.5511C251.1 23.1431 248.723 26.5066 247.457 30.6415L258.85 34.2518C259.653 31.9684 261.058 30.3792 263.065 29.4843C265.072 28.5895 267.001 28.142 268.854 28.142C271.818 28.142 274.026 28.6975 275.477 29.8083C276.928 30.8883 277.777 32.6009 278.024 34.9461C273.331 35.625 269.194 36.2884 265.612 36.9364C262.03 37.5536 259.036 38.2941 256.627 39.1582C252.613 40.6393 249.788 42.6605 248.152 45.2216C246.515 47.752 245.697 50.7606 245.697 54.2475C245.697 57.0246 246.33 59.5704 247.596 61.8847C248.893 64.1682 250.776 66.0042 253.246 67.3928C255.747 68.7505 258.789 69.4294 262.37 69.4294ZM265.056 59.5241C262.895 59.5241 261.181 59.0458 259.915 58.0892C258.65 57.1018 258.017 55.7595 258.017 54.0623C258.017 52.7972 258.418 51.7172 259.221 50.8223C260.024 49.8966 261.351 49.0634 263.204 48.3228C264.624 47.7983 266.368 47.32 268.437 46.888C270.537 46.4251 273.702 45.8388 277.931 45.1291C277.901 46.3325 277.808 47.6594 277.654 49.1097C277.499 50.5291 277.16 51.7789 276.635 52.8589C276.295 53.5686 275.647 54.448 274.69 55.4972C273.763 56.5463 272.497 57.4875 270.892 58.3207C269.317 59.1229 267.372 59.5241 265.056 59.5241Z" fill="#3660F5"/>
    <path d="M299.7 68.0408H312.297V0H299.7V68.0408Z" fill="#3660F5"/>
    <path d="M323.403 68.0408H336V0H323.403V68.0408Z" fill="#3660F5"/>
    <path d="M25 72.7273C25 93.3124 41.7893 110 62.5 110C83.2107 110 100 93.3125 100 72.7273V24" stroke="#3660F5" stroke-width="15.24"/>
    </svg>
